<svg xmlns="http://www.w3.org/2000/svg" width="1200" height="900" viewBox="0 0 1200 900"><rect width="1200" height="900" fill="#cfd3d7"/><path d="M940.8 749.5 C911.4 814.1 701.4 875.5 592.4 792.0 C483.5 708.5 274.2 344.0 287.3 248.7 C300.4 153.4 599.2 134.4 671.0 220.1 C742.8 305.8 785.8 667.6 718.0 762.9 C650.2 858.2 307.2 838.8 264.2 791.9 C221.2 745.0 410.2 568.4 460.1 481.5 C510.0 394.6 511.9 279.6 563.7 270.5 C615.4 261.5 736.4 405.0 770.6 427.3 C804.7 449.6 740.3 350.7 768.6 404.5 C797.0 458.2 970.1 684.9 940.8 749.5" fill="none" stroke="#72889f" stroke-width="2.31" stroke-linecap="round" stroke-linejoin="round" opacity=".75"/><text x="96" y="837" font-family="Arial Narrow,Arial,sans-serif" font-size="19" letter-spacing="3.0" fill="#5f7288">PLACEHOLDER — CONTINUOUS LINE V (2)</text></svg>